<?xml version="1.0" encoding="UTF-8" standalone="no"?>
<!-- Created with Inkscape (http://www.inkscape.org/) -->

<svg
   xmlns:dc="http://purl.org/dc/elements/1.1/"
   xmlns:cc="http://creativecommons.org/ns#"
   xmlns:rdf="http://www.w3.org/1999/02/22-rdf-syntax-ns#"
   xmlns:svg="http://www.w3.org/2000/svg"
   xmlns="http://www.w3.org/2000/svg"
   xmlns:sodipodi="http://sodipodi.sourceforge.net/DTD/sodipodi-0.dtd"
   xmlns:inkscape="http://www.inkscape.org/namespaces/inkscape"
   width="268.46005mm"
   height="110.20139mm"
   viewBox="0 0 951.2364 390.47735"
   id="svg7978"
   version="1.1"
   inkscape:version="0.91 r13725"
   sodipodi:docname="helpIRL.svg">
  <defs
     id="defs7980" />
  <sodipodi:namedview
     id="base"
     pagecolor="#ffffff"
     bordercolor="#666666"
     borderopacity="1.0"
     inkscape:pageopacity="0.0"
     inkscape:pageshadow="2"
     inkscape:zoom="0.98994949"
     inkscape:cx="477.66769"
     inkscape:cy="267.34934"
     inkscape:document-units="px"
     inkscape:current-layer="layer1"
     showgrid="false"
     fit-margin-top="0"
     fit-margin-left="0"
     fit-margin-right="0"
     fit-margin-bottom="0"
     inkscape:window-width="1855"
     inkscape:window-height="1056"
     inkscape:window-x="65"
     inkscape:window-y="24"
     inkscape:window-maximized="1" />
  <metadata
     id="metadata7983">
    <rdf:RDF>
      <cc:Work
         rdf:about="">
        <dc:format>image/svg+xml</dc:format>
        <dc:type
           rdf:resource="http://purl.org/dc/dcmitype/StillImage" />
        <dc:title></dc:title>
      </cc:Work>
    </rdf:RDF>
  </metadata>
  <g
     inkscape:label="Layer 1"
     inkscape:groupmode="layer"
     id="layer1"
     transform="translate(-40.406101,-501.96332)">
    <ellipse
       style="fill:#ddc400;fill-opacity:0.27044025;stroke:none;stroke-width:3.20099998;stroke-miterlimit:4;stroke-dasharray:none;stroke-opacity:1"
       id="path8526-3"
       cx="336.3808"
       cy="687.69714"
       rx="39.901028"
       ry="34.850262" />
    <ellipse
       style="fill:#ddc400;fill-opacity:0.27044025;stroke:none;stroke-width:3.20099998;stroke-miterlimit:4;stroke-dasharray:none;stroke-opacity:1"
       id="path8526-7"
       cx="85.862968"
       cy="851.34186"
       rx="39.901028"
       ry="34.850262" />
    <ellipse
       style="fill:#ddc400;fill-opacity:0.27044025;stroke:none;stroke-width:3.20099998;stroke-miterlimit:4;stroke-dasharray:none;stroke-opacity:1"
       id="path8526-5"
       cx="340.42139"
       cy="829.11847"
       rx="39.901028"
       ry="34.850262" />
    <ellipse
       style="fill:#ddc400;fill-opacity:0.27044025;stroke:none;stroke-width:3.20099998;stroke-miterlimit:4;stroke-dasharray:none;stroke-opacity:1"
       id="path8526-8"
       cx="337.39093"
       cy="538.19458"
       rx="39.901028"
       ry="34.850262" />
    <ellipse
       style="fill:#ddc400;fill-opacity:0.27044025;stroke:none;stroke-width:3.20099998;stroke-miterlimit:4;stroke-dasharray:none;stroke-opacity:1"
       id="path8526"
       cx="80.307129"
       cy="639.71484"
       rx="39.901028"
       ry="34.850262" />
    <text
       xml:space="preserve"
       style="font-style:normal;font-weight:normal;font-size:40px;line-height:125%;font-family:sans-serif;letter-spacing:0px;word-spacing:0px;fill:#000000;fill-opacity:1;stroke:none;stroke-width:1px;stroke-linecap:butt;stroke-linejoin:miter;stroke-opacity:1"
       x="54.548237"
       y="656.38239"
       id="text8536"
       sodipodi:linespacing="125%"><tspan
         sodipodi:role="line"
         id="tspan8538"
         x="54.548237"
         y="656.38239">A<tspan
   style="font-size:64.99999762%;baseline-shift:sub"
   id="tspan8625">1</tspan></tspan></text>
    <text
       xml:space="preserve"
       style="font-style:normal;font-weight:normal;font-size:40px;line-height:125%;font-family:sans-serif;letter-spacing:0px;word-spacing:0px;fill:#000000;fill-opacity:1;stroke:none;stroke-width:1px;stroke-linecap:butt;stroke-linejoin:miter;stroke-opacity:1"
       x="61.619305"
       y="868.5144"
       id="text8540"
       sodipodi:linespacing="125%"><tspan
         sodipodi:role="line"
         id="tspan8542"
         x="61.619305"
         y="868.5144">A<tspan
   style="font-size:64.99999762%;baseline-shift:sub"
   id="tspan8627">2</tspan></tspan></text>
    <text
       xml:space="preserve"
       style="font-style:normal;font-weight:normal;font-size:40px;line-height:125%;font-family:sans-serif;letter-spacing:0px;word-spacing:0px;fill:#000000;fill-opacity:1;stroke:none;stroke-width:1px;stroke-linecap:butt;stroke-linejoin:miter;stroke-opacity:1"
       x="315.1676"
       y="550.31641"
       id="text8544"
       sodipodi:linespacing="125%"><tspan
         sodipodi:role="line"
         id="tspan8546"
         x="315.1676"
         y="550.31641">O<tspan
   style="font-size:64.99999762%;baseline-shift:sub"
   id="tspan8629">1</tspan></tspan></text>
    <text
       xml:space="preserve"
       style="font-style:normal;font-weight:normal;font-size:40px;line-height:125%;font-family:sans-serif;letter-spacing:0px;word-spacing:0px;fill:#000000;fill-opacity:1;stroke:none;stroke-width:1px;stroke-linecap:butt;stroke-linejoin:miter;stroke-opacity:1"
       x="308.09653"
       y="701.83929"
       id="text8548"
       sodipodi:linespacing="125%"><tspan
         sodipodi:role="line"
         id="tspan8550"
         x="308.09653"
         y="701.83929">O<tspan
   style="font-size:64.99999762%;baseline-shift:sub"
   id="tspan8631">2</tspan></tspan></text>
    <text
       xml:space="preserve"
       style="font-style:normal;font-weight:normal;font-size:40px;line-height:125%;font-family:sans-serif;letter-spacing:0px;word-spacing:0px;fill:#000000;fill-opacity:1;stroke:none;stroke-width:1px;stroke-linecap:butt;stroke-linejoin:miter;stroke-opacity:1"
       x="312.13715"
       y="850.33167"
       id="text8552"
       sodipodi:linespacing="125%"><tspan
         sodipodi:role="line"
         id="tspan8554"
         x="312.13715"
         y="850.33167">O<tspan
   style="font-size:64.99999762%;baseline-shift:sub"
   id="tspan8633">3</tspan></tspan></text>
    <text
       xml:space="preserve"
       style="font-style:normal;font-weight:normal;font-size:40px;line-height:125%;font-family:sans-serif;letter-spacing:0px;word-spacing:0px;fill:#000000;fill-opacity:1;stroke:none;stroke-width:1px;stroke-linecap:butt;stroke-linejoin:miter;stroke-opacity:1"
       x="481.84277"
       y="531.12347"
       id="text8556"
       sodipodi:linespacing="125%"><tspan
         sodipodi:role="line"
         id="tspan8558"
         x="481.84277"
         y="531.12347">R<tspan
   style="font-size:64.99999762%;baseline-shift:sub"
   id="tspan8635">1</tspan> = 1</tspan></text>
    <text
       xml:space="preserve"
       style="font-style:normal;font-weight:normal;font-size:40px;line-height:125%;font-family:sans-serif;letter-spacing:0px;word-spacing:0px;fill:#000000;fill-opacity:1;stroke:none;stroke-width:1px;stroke-linecap:butt;stroke-linejoin:miter;stroke-opacity:1"
       x="482.85291"
       y="691.73773"
       id="text8560"
       sodipodi:linespacing="125%"><tspan
         sodipodi:role="line"
         id="tspan8562"
         x="482.85291"
         y="691.73773">R<tspan
   style="font-size:64.99999762%;baseline-shift:sub"
   id="tspan8637">2</tspan> = -0.9</tspan></text>
    <text
       xml:space="preserve"
       style="font-style:normal;font-weight:normal;font-size:40px;line-height:125%;font-family:sans-serif;letter-spacing:0px;word-spacing:0px;fill:#000000;fill-opacity:1;stroke:none;stroke-width:1px;stroke-linecap:butt;stroke-linejoin:miter;stroke-opacity:1"
       x="481.84277"
       y="847.30121"
       id="text8564"
       sodipodi:linespacing="125%"><tspan
         sodipodi:role="line"
         id="tspan8566"
         x="481.84277"
         y="847.30121">R<tspan
   style="font-size:64.99999762%;baseline-shift:sub"
   id="tspan8639">3</tspan> = 0</tspan></text>
    <path
       style="fill:none;fill-rule:evenodd;stroke:#000000;stroke-width:1px;stroke-linecap:butt;stroke-linejoin:miter;stroke-opacity:1"
       d="M 118.18785,643.25042 297.995,560.41791"
       id="path8568"
       inkscape:connector-curvature="0" />
    <path
       style="fill:none;fill-rule:evenodd;stroke:#000000;stroke-width:1px;stroke-linecap:butt;stroke-linejoin:miter;stroke-opacity:1"
       d="m 117.1777,659.41286 179.80715,31.31473"
       id="path8570"
       inkscape:connector-curvature="0" />
    <path
       style="fill:none;fill-rule:evenodd;stroke:#000000;stroke-width:1px;stroke-linecap:butt;stroke-linejoin:miter;stroke-opacity:1"
       d="M 136.37059,857.40276 297.995,836.18956"
       id="path8572"
       inkscape:connector-curvature="0" />
    <path
       style="fill:none;fill-rule:evenodd;stroke:#000000;stroke-width:1px;stroke-linecap:butt;stroke-linejoin:miter;stroke-opacity:1"
       d="m 377.79705,835.17941 86.87312,-1.01016"
       id="path8574"
       inkscape:connector-curvature="0" />
    <path
       style="fill:none;fill-rule:evenodd;stroke:#000000;stroke-width:1px;stroke-linecap:butt;stroke-linejoin:miter;stroke-opacity:1"
       d="m 377.79705,690.72759 89.90358,2.02031"
       id="path8576"
       inkscape:connector-curvature="0" />
    <path
       style="fill:none;fill-rule:evenodd;stroke:#000000;stroke-width:1px;stroke-linecap:butt;stroke-linejoin:miter;stroke-opacity:1"
       d="m 385.87827,540.21486 81.82236,-13.13198"
       id="path8578"
       inkscape:connector-curvature="0" />
    <path
       style="fill:#ddc400;fill-opacity:0.27044025;stroke:none;stroke-width:3.20099998;stroke-miterlimit:4;stroke-dasharray:none;stroke-opacity:1"
       id="path8613"
       d="m 670.8015,521.05212 c 4.4781,0.89476 8.48897,3.13871 12.52655,5.17128 5.65713,2.7044 11.32601,5.34021 16.82986,8.3508 4.57225,2.7386 8.96372,5.78098 13.17838,9.04094 4.4313,3.74641 8.15606,8.24035 11.91446,12.63905 4.34588,4.6917 7.95579,9.96985 11.30714,15.39721 3.55273,5.34046 6.23305,11.06653 8.48672,17.04795 2.46754,6.14325 3.21736,12.7267 4.19179,19.21867 1.0667,6.46913 1.25281,13.02341 1.76104,19.54559 0.41108,4.19068 0.80184,8.37884 1.00522,12.58509 0.18266,3.36719 0.24992,6.70645 -0.36758,10.02803 -1.40436,5.46425 -3.67416,10.646 -5.74902,15.87667 -1.92603,5.07496 -3.75274,10.18878 -6.53475,14.86943 -2.07519,3.04995 -4.44507,5.88343 -6.90568,8.62646 -2.13741,2.34505 -4.39577,4.57499 -6.63752,6.81915 -1.24233,1.18167 -0.64505,0.65775 -1.77454,1.59124 0,0 -13.94981,5.44621 -13.94981,5.44621 l 0,0 c 1.3291,-0.67985 0.64959,-0.25121 1.9958,-1.35125 2.23671,-2.23239 4.47469,-4.46445 6.65378,-6.7534 2.50868,-2.693 4.891,-5.49266 7.10822,-8.43238 3.05774,-4.4989 4.88328,-9.63008 6.80416,-14.68774 2.03666,-5.12769 4.18245,-10.23371 5.66489,-15.55674 0.74638,-3.19484 0.57482,-6.41555 0.48401,-9.67969 -0.13098,-4.22028 -0.43866,-8.4308 -0.79079,-12.638 -0.46524,-6.50333 -0.56877,-13.04249 -1.62885,-19.49305 -0.95169,-6.38412 -1.74054,-12.85479 -4.07855,-18.91907 -2.28897,-5.85998 -4.79743,-11.57674 -8.33594,-16.81881 -3.3232,-5.36066 -6.94303,-10.53828 -11.23584,-15.17781 -3.70631,-4.31635 -7.40012,-8.71112 -11.79952,-12.34707 -4.19452,-3.15518 -8.51019,-6.18193 -13.00723,-8.88889 -5.48433,-3.00946 -11.17117,-5.57857 -16.8061,-8.28789 -4.07236,-1.94859 -8.1223,-4.02947 -12.63955,-4.71775 0,0 12.32925,-8.50423 12.32925,-8.50423 z"
       inkscape:connector-curvature="0" />
    <text
       xml:space="preserve"
       style="font-style:normal;font-weight:normal;font-size:40px;line-height:125%;font-family:sans-serif;letter-spacing:0px;word-spacing:0px;fill:#000000;fill-opacity:1;stroke:none;stroke-width:1px;stroke-linecap:butt;stroke-linejoin:miter;stroke-opacity:1"
       x="769.73627"
       y="562.43823"
       id="text8615"
       sodipodi:linespacing="125%"><tspan
         sodipodi:role="line"
         id="tspan8617"
         x="769.73627"
         y="562.43823">R(A<tspan
   style="font-size:64.99999762%;baseline-shift:sub"
   id="tspan8641">1</tspan>) = 0.1</tspan></text>
    <path
       style="fill:#ddc400;fill-opacity:0.27044025;stroke:none;stroke-width:3.20099998;stroke-miterlimit:4;stroke-dasharray:none;stroke-opacity:1"
       id="path8619"
       d="m 638.25147,794.12476 c 2.79646,5.83329 8.42575,9.80433 13.39189,13.69818 4.44735,3.3375 8.9792,6.55607 12.76602,10.65283 2.37199,2.49646 4.02089,5.53347 5.9827,8.33676 1.67513,2.27321 2.63287,4.89926 3.56483,7.53412 0.75314,2.94945 1.7406,5.83178 2.48137,8.78628 0.67396,3.14327 0.83683,6.36226 0.91149,9.5665 0.0592,2.88518 0.0475,5.77111 0.0545,8.65674 -0.0759,2.34858 -0.55078,4.63904 -1.28519,6.86269 -0.72772,2.36633 -2.07775,4.38255 -3.60476,6.29693 -1.79233,2.25241 -3.86935,4.1822 -6.17489,5.88958 -6.62801,4.61388 -13.33062,9.81727 -21.15781,12.0353 0,0 11.75978,-9.14638 11.75978,-9.14638 l 0,0 c 4.77357,-1.90798 11.73525,-6.40737 -8.6985,5.39662 -0.49373,0.28522 0.97374,-0.59356 1.46229,-0.88756 2.0182,-1.21454 0.96225,-0.48529 2.81395,-1.91128 2.25973,-1.67473 4.51383,-3.28756 6.2607,-5.54113 1.53116,-1.75571 3.05019,-3.56661 3.77479,-5.82356 0.87051,-2.04237 1.30663,-4.19486 1.54898,-6.39861 0.0221,-2.88219 0.0396,-5.76457 0.01,-8.64677 -0.0703,-3.10377 -0.14875,-6.2272 -0.76854,-9.28028 -0.68472,-2.92374 -1.7482,-5.72676 -2.42959,-8.64877 -0.86469,-2.51372 -1.82062,-4.99624 -3.358,-7.18863 -1.89655,-2.76318 -3.47835,-5.75417 -5.79302,-8.20987 -3.69533,-4.01699 -8.04757,-7.29352 -12.32982,-10.65545 -5.17447,-4.14882 -10.97683,-8.20653 -14.27033,-14.10324 0,0 13.08726,-7.271 13.08726,-7.271 z"
       inkscape:connector-curvature="0" />
    <text
       xml:space="preserve"
       style="font-style:normal;font-weight:normal;font-size:40px;line-height:125%;font-family:sans-serif;letter-spacing:0px;word-spacing:0px;fill:#000000;fill-opacity:1;stroke:none;stroke-width:1px;stroke-linecap:butt;stroke-linejoin:miter;stroke-opacity:1"
       x="708.11694"
       y="845.28088"
       id="text8621"
       sodipodi:linespacing="125%"><tspan
         sodipodi:role="line"
         id="tspan8623"
         x="708.11694"
         y="845.28088">R(A<tspan
   style="font-size:64.99999762%;baseline-shift:sub"
   id="tspan8643">2</tspan>) = 0</tspan></text>
    <text
       xml:space="preserve"
       style="font-style:normal;font-weight:normal;font-size:40px;line-height:125%;font-family:sans-serif;letter-spacing:0px;word-spacing:0px;fill:#000000;fill-opacity:1;stroke:none;stroke-width:1px;stroke-linecap:butt;stroke-linejoin:miter;stroke-opacity:1"
       x="188.89851"
       y="602.52692"
       id="text8664"
       sodipodi:linespacing="125%"><tspan
         sodipodi:role="line"
         id="tspan8666"
         x="188.89851"
         y="602.52692"
         style="font-size:30px">0.5</tspan></text>
    <text
       xml:space="preserve"
       style="font-style:normal;font-weight:normal;font-size:40px;line-height:125%;font-family:sans-serif;letter-spacing:0px;word-spacing:0px;fill:#000000;fill-opacity:1;stroke:none;stroke-width:1px;stroke-linecap:butt;stroke-linejoin:miter;stroke-opacity:1"
       x="186.87822"
       y="685.35938"
       id="text8668"
       sodipodi:linespacing="125%"><tspan
         sodipodi:role="line"
         id="tspan8670"
         x="186.87822"
         y="685.35938"
         style="font-size:30px">0.5</tspan></text>
    <text
       xml:space="preserve"
       style="font-style:normal;font-weight:normal;font-size:40px;line-height:125%;font-family:sans-serif;letter-spacing:0px;word-spacing:0px;fill:#000000;fill-opacity:1;stroke:none;stroke-width:1px;stroke-linecap:butt;stroke-linejoin:miter;stroke-opacity:1"
       x="194.95944"
       y="843.95337"
       id="text8672"
       sodipodi:linespacing="125%"><tspan
         sodipodi:role="line"
         id="tspan8674"
         x="194.95944"
         y="843.95337"
         style="font-size:30px">1</tspan></text>
  </g>
</svg>
